<mxfile host="65bd71144e">
    <diagram id="KnxmgnudgqGiJWSHdmvA" name="Page-1">
        <mxGraphModel dx="1174" dy="906" grid="1" gridSize="10" guides="1" tooltips="1" connect="1" arrows="1" fold="1" page="1" pageScale="1" pageWidth="1200" pageHeight="1920" math="0" shadow="0">
            <root>
                <mxCell id="0"/>
                <mxCell id="1" parent="0"/>
                <mxCell id="19" value="应用层" style="rounded=0;whiteSpace=wrap;html=1;fontSize=16;fillColor=#CCFF99;" parent="1" vertex="1">
                    <mxGeometry x="360" y="200" width="160" height="180" as="geometry"/>
                </mxCell>
                <mxCell id="22" value="传输层" style="rounded=0;whiteSpace=wrap;html=1;fontSize=16;fillColor=#FFE6CC;" parent="1" vertex="1">
                    <mxGeometry x="360" y="380" width="160" height="60" as="geometry"/>
                </mxCell>
                <mxCell id="23" value="网络层" style="rounded=0;whiteSpace=wrap;html=1;fontSize=16;fillColor=#FFE6CC;" parent="1" vertex="1">
                    <mxGeometry x="360" y="440" width="160" height="60" as="geometry"/>
                </mxCell>
                <mxCell id="24" value="数据链路层" style="rounded=0;whiteSpace=wrap;html=1;fontSize=16;fillColor=#FFE6CC;" parent="1" vertex="1">
                    <mxGeometry x="360" y="500" width="160" height="60" as="geometry"/>
                </mxCell>
                <mxCell id="25" value="物理层" style="rounded=0;whiteSpace=wrap;html=1;fontSize=16;fillColor=#FFE6CC;" parent="1" vertex="1">
                    <mxGeometry x="360" y="560" width="160" height="60" as="geometry"/>
                </mxCell>
                <mxCell id="39" value="&lt;span style=&quot;font-size: 18px;&quot;&gt;&lt;b&gt;TCP_IP参考模型对应协议&lt;/b&gt;&lt;/span&gt;" style="text;html=1;align=center;verticalAlign=middle;resizable=0;points=[];autosize=1;strokeColor=none;fillColor=none;" parent="1" vertex="1">
                    <mxGeometry x="670" y="140" width="230" height="40" as="geometry"/>
                </mxCell>
                <mxCell id="65" value="Telnet" style="rounded=0;whiteSpace=wrap;html=1;fontSize=14;" vertex="1" parent="1">
                    <mxGeometry x="560" y="240" width="120" height="40" as="geometry"/>
                </mxCell>
                <mxCell id="66" value="FTP" style="rounded=0;whiteSpace=wrap;html=1;fontSize=14;" vertex="1" parent="1">
                    <mxGeometry x="680" y="240" width="120" height="40" as="geometry"/>
                </mxCell>
                <mxCell id="67" value="HTTP" style="rounded=0;whiteSpace=wrap;html=1;fontSize=14;" vertex="1" parent="1">
                    <mxGeometry x="560" y="280" width="120" height="40" as="geometry"/>
                </mxCell>
                <mxCell id="68" value="SMTP" style="rounded=0;whiteSpace=wrap;html=1;fontSize=14;" vertex="1" parent="1">
                    <mxGeometry x="680" y="280" width="120" height="40" as="geometry"/>
                </mxCell>
                <mxCell id="69" value="TFTP" style="rounded=0;whiteSpace=wrap;html=1;fontSize=14;" vertex="1" parent="1">
                    <mxGeometry x="800" y="240" width="120" height="40" as="geometry"/>
                </mxCell>
                <mxCell id="70" value="SNMP" style="rounded=0;whiteSpace=wrap;html=1;fontSize=14;" vertex="1" parent="1">
                    <mxGeometry x="920" y="240" width="120" height="40" as="geometry"/>
                </mxCell>
                <mxCell id="71" value="NFS" style="rounded=0;whiteSpace=wrap;html=1;fontSize=14;" vertex="1" parent="1">
                    <mxGeometry x="800" y="280" width="120" height="40" as="geometry"/>
                </mxCell>
                <mxCell id="72" value="DHCP" style="rounded=0;whiteSpace=wrap;html=1;fontSize=14;" vertex="1" parent="1">
                    <mxGeometry x="920" y="280" width="120" height="40" as="geometry"/>
                </mxCell>
                <mxCell id="73" value="TCP" style="rounded=0;whiteSpace=wrap;html=1;fontSize=14;fontColor=#FF0000;fontStyle=1" vertex="1" parent="1">
                    <mxGeometry x="560" y="390" width="240" height="40" as="geometry"/>
                </mxCell>
                <mxCell id="74" value="UDP" style="rounded=0;whiteSpace=wrap;html=1;fontSize=14;" vertex="1" parent="1">
                    <mxGeometry x="800" y="390" width="240" height="40" as="geometry"/>
                </mxCell>
                <mxCell id="77" value="IP" style="rounded=0;whiteSpace=wrap;html=1;fontSize=14;fontColor=#FF0000;fontStyle=1" vertex="1" parent="1">
                    <mxGeometry x="560" y="450" width="120" height="40" as="geometry"/>
                </mxCell>
                <mxCell id="78" value="ICMP" style="rounded=0;whiteSpace=wrap;html=1;fontSize=14;" vertex="1" parent="1">
                    <mxGeometry x="680" y="450" width="120" height="40" as="geometry"/>
                </mxCell>
                <mxCell id="81" value="Routing Protocol（静态.RIP.OSPF等）" style="rounded=0;whiteSpace=wrap;html=1;fontSize=14;" vertex="1" parent="1">
                    <mxGeometry x="800" y="450" width="240" height="40" as="geometry"/>
                </mxCell>
                <mxCell id="85" value="Ethernet" style="rounded=0;whiteSpace=wrap;html=1;fontSize=14;" vertex="1" parent="1">
                    <mxGeometry x="560" y="510" width="120" height="40" as="geometry"/>
                </mxCell>
                <mxCell id="86" value="Frame-Relay" style="rounded=0;whiteSpace=wrap;html=1;fontSize=14;" vertex="1" parent="1">
                    <mxGeometry x="680" y="510" width="120" height="40" as="geometry"/>
                </mxCell>
                <mxCell id="87" value="PPP-PPPOE" style="rounded=0;whiteSpace=wrap;html=1;fontSize=14;" vertex="1" parent="1">
                    <mxGeometry x="800" y="510" width="120" height="40" as="geometry"/>
                </mxCell>
                <mxCell id="88" value="HDLC" style="rounded=0;whiteSpace=wrap;html=1;fontSize=14;" vertex="1" parent="1">
                    <mxGeometry x="920" y="510" width="120" height="40" as="geometry"/>
                </mxCell>
                <mxCell id="89" value="双绞线" style="rounded=0;whiteSpace=wrap;html=1;fontSize=14;" vertex="1" parent="1">
                    <mxGeometry x="560" y="570" width="120" height="40" as="geometry"/>
                </mxCell>
                <mxCell id="90" value="光纤" style="rounded=0;whiteSpace=wrap;html=1;fontSize=14;" vertex="1" parent="1">
                    <mxGeometry x="680" y="570" width="120" height="40" as="geometry"/>
                </mxCell>
                <mxCell id="91" value="跳线/尾纤" style="rounded=0;whiteSpace=wrap;html=1;fontSize=14;" vertex="1" parent="1">
                    <mxGeometry x="800" y="570" width="120" height="40" as="geometry"/>
                </mxCell>
                <mxCell id="92" value="配线架/理线架" style="rounded=0;whiteSpace=wrap;html=1;fontSize=14;" vertex="1" parent="1">
                    <mxGeometry x="920" y="570" width="120" height="40" as="geometry"/>
                </mxCell>
            </root>
        </mxGraphModel>
    </diagram>
</mxfile>